<!-- Generated by IcoMoon.io -->
<svg version="1.1" xmlns="http://www.w3.org/2000/svg" width="1024" height="1024" viewBox="0 0 1024 1024">
<title></title>
<g id="icomoon-ignore">
</g>
<path fill="#000" d="M800 234.713c-71.373-66.223-166.958-106.713-272-106.713s-200.627 40.489-272 106.713v0c78.731 73.051 128 177.415 128 293.287s-49.269 220.236-128 293.287c71.373 66.223 166.958 106.713 272 106.713s200.627-40.489 272-106.713c-78.731-73.051-128-177.415-128-293.287s49.269-220.236 128-293.287v0 0zM822.589 257.409c65.452 71.219 105.411 166.239 105.411 270.591s-39.959 199.371-105.411 270.591c-72.915-67.242-118.589-163.583-118.589-270.591s45.673-203.349 118.589-270.591v0 0zM233.411 257.409c-65.452 71.219-105.411 166.239-105.411 270.591s39.959 199.371 105.411 270.591c72.915-67.242 118.589-163.583 118.589-270.591s-45.673-203.349-118.589-270.591v0z"></path>
</svg>
